# xmcd
#
# Track frame offsets:
#	150
#	12809
#	30990
#	48279
#	62260
#	77292
#	95203
#	109699
#	127037
#	142674
#	158865
#	174588
#	191472
#	207529
#	223408
#	242154
#	256272
#	270914
#	286356
#
# Disc length: 4011 seconds
# Revision: 0
# Processed by: cddbd v1.5.2PL0 Copyright (c) Steve Scherf et al.
# Submitted via: dBpowerAMP V12.0
#
DISCID=020fa913
DTITLE=Various Artist - Country Radio July 2008
DYEAR=2008
DGENRE=Country
TTITLE0=Jessica Simpson - Come On Over
TTITLE1=Taylor Swift - Should've Said No
TTITLE2=Keith Urban - You Look Good In My Shirt
TTITLE3=Chris Young - Voices
TTITLE4=Jewel - I Do
TTITLE5=Brad Paisley - Waitin On A Woman
TTITLE6=Kellie Pickler - Don't You Know You're Beautiful
TTITLE7=Cowboy Crush - Tougher Than Man
TTITLE8=Laura Bryna - Life Is Good
TTITLE9=Crossin Dixon - I Love My Old Bird Dog and I Love You
TTITLE10=Sugarland - All I Want To Do
TTITLE11=Craig Morgan - Love Remembers
TTITLE12=Lee Brice - Upper Middle Class White Trash
TTITLE13=Crystal Shawanda - What Do I Have To Do
TTITLE14=Kathleen Edwards - I Make The Dough You Get The Glory
TTITLE15=Trailer Choir - Off The Hillbilly Hook
TTITLE16=Carolina Rain - American Radio
TTITLE17=Kristina Cornell - That's The Way It Feels
TTITLE18=Jason Blaine - My First Car
EXTD=
EXTT0=
EXTT1=
EXTT2=
EXTT3=
EXTT4=
EXTT5=
EXTT6=
EXTT7=
EXTT8=
EXTT9=
EXTT10=
EXTT11=
EXTT12=
EXTT13=
EXTT14=
EXTT15=
EXTT16=
EXTT17=
EXTT18=
PLAYORDER=
